<svg width="40" height="40" viewBox="0 0 40 40" fill="none" xmlns="http://www.w3.org/2000/svg">
<g clip-path="url(#clip0_17_68)">
<path d="M39.279 29.8867L19.6398 40L19.5801 39.9701L19.6547 31.9422L29.0015 27.234V30.8125L31.5149 29.4786L33.008 28.6823V16.0806L38.0098 14.1396L39.1595 13.6966L39.1695 13.6917L39.279 29.8867Z" fill="#146140"/>
<path d="M19.6551 31.9421L19.5804 39.97L0.200056 29.8169L0.000976562 9.91895L0.130378 9.85425L6.84433 13.6616L7.0235 13.7612L6.64027 25.6114V25.6711L19.6551 31.9421Z" fill="white"/>
<path d="M28.9072 17.9768V23.1678L23.1588 25.5916V19.8681L23.1289 19.8581L28.9072 17.9768Z" fill="#07542C"/>
<path d="M23.1583 19.8682V25.95L19.754 27.5029L11.3877 23.2824L11.4225 23.2625V18.5542L15.4439 19.6243L15.4688 20.6993L16.514 21.207V22.4114L17.6388 22.8394L17.584 24.0737L18.7088 24.3972L18.7636 25.95L21.924 24.5017L21.9538 22.8942L20.9335 22.6802L20.9087 21.2319L19.8336 21.0726L19.7839 19.7885L18.6043 19.5198V18.1262L23.1284 19.8582L23.1583 19.8682Z" fill="#F7F5F1"/>
<path d="M39.1444 10.1182V10.1331L38.0097 10.4517V14.1396L33.0078 16.0806L27.0802 13.7315V10.2078L19.8039 6.80353L19.4256 6.62436L6.84383 13.6618L0.129883 9.85442L19.8387 0L39.1444 10.1182Z" fill="#93CB50"/>
<path d="M27.0801 13.7314V10.2077L19.8038 6.80347V7.80882L18.5247 8.48071V9.96385L17.7085 10.1082L17.7682 11.1882L16.6036 11.5366V12.8157L15.4091 13.3681V14.4431L14.4485 14.9956V16.5982L11.4225 18.1709V18.5541L15.4439 19.6242L15.4688 20.6992L16.514 21.2069V22.4113L17.6388 22.8393L17.584 24.0736L18.7088 24.3971L18.7636 25.9499L21.924 24.5016L21.9538 22.894L20.9335 22.68L20.9087 21.2317L19.8336 21.0725L19.7839 19.7884L18.6043 19.5197V18.1261L23.1284 19.8581L28.9067 17.9768V23.1678H28.8917L23.1582 25.5916V25.9499L19.754 27.5027L11.3877 23.2823L6.63965 25.6115V25.6712L19.6545 31.9422L29.0012 27.234V30.8124L31.5146 29.4786L33.0077 28.6823V16.0806L27.0801 13.7314ZM17.599 17.6632L17.4895 16.2398L18.6342 15.5679L18.5496 14.5327L19.4454 13.9156L19.3907 12.9948L20.6747 12.5768L20.7295 11.2877L21.5407 10.9841L21.486 9.5856L22.6606 9.55574V14.6721L17.599 17.6632Z" fill="#8DAF4F"/>
<path d="M19.8038 6.80344V7.80879L18.5247 8.48068V9.96382L17.7085 10.1082L17.7682 11.1882L16.6036 11.5365V12.8156L15.4091 13.3681V14.4431L14.4485 14.9956V16.5981L11.4225 18.1709V23.2623L11.3877 23.2822L6.63965 25.6115L7.02288 13.7613L6.8437 13.6617L19.4255 6.62427L19.8038 6.80344Z" fill="#146140"/>
<path d="M6.63999 25.6116L6.15723 25.8505" stroke="white" stroke-width="0.497698" stroke-miterlimit="10"/>
<path d="M22.6952 9.2124L22.6603 14.6722L17.5988 17.6633L17.4893 16.2399L18.634 15.568L18.5494 14.5328L19.4452 13.9156L19.3905 12.9949L20.6745 12.5768L20.7293 11.2878L21.5405 10.9842L21.4858 9.58568L22.6952 9.2124Z" fill="#0E4D35"/>
<path d="M15.4443 19.6242L18.5898 18.5442L18.6047 19.5197L15.4692 20.6992L15.4443 19.6242Z" fill="#146140"/>
<path d="M16.5146 21.2068V22.4112L19.8343 21.0724L19.7845 19.7883L16.5146 21.2068Z" fill="#146140"/>
<path d="M17.6387 22.8394V24.1235L20.9334 22.6802L20.8837 21.5056L17.6387 22.8394Z" fill="#146140"/>
<path d="M18.709 24.397L18.7637 25.9499L21.9241 24.5016L21.8743 23.103L18.709 24.397Z" fill="#146140"/>
<path d="M19.7545 27.5028L19.6201 26.1789L28.8425 22.3765L28.8873 23.989L19.7545 27.5028Z" fill="#07542C"/>
<path d="M28.4287 29.2149V30.3845L31.4995 28.5629L31.4796 27.5974L28.4287 29.2149Z" fill="#146140"/>
<path d="M27.7275 27.7218V28.8963L30.9725 27.0698L30.9526 26.1042L27.7275 27.7218Z" fill="#146140"/>
<path d="M26.9365 26.1441V27.3137L30.1666 25.4921L30.1467 24.5266L26.9365 26.1441Z" fill="#146140"/>
<path d="M33.0081 16.0806V28.6823L31.515 29.4786L31.4802 27.5973L31.0621 27.8014L30.9725 27.0697L30.9477 26.1042L30.1613 26.4874L30.1464 24.5265L28.8872 23.989L28.8922 23.1728L28.9071 17.9768L22.661 14.6721V9.55574L19.5205 7.92826L19.8042 6.80347L27.0805 10.2077V13.7314L33.0081 16.0806Z" fill="white"/>
<path d="M27.0801 10.2077V13.7314L28.2298 13.3034V9.89917L27.0801 10.2077Z" fill="#146140"/>
<path d="M36.4023 10.7654V14.2891L37.552 13.861V10.4568L36.4023 10.7654Z" fill="#146140"/>
<path d="M34.5713 10.7654V14.2891L35.716 13.861V10.4568L34.5713 10.7654Z" fill="#146140"/>
<path d="M32.6689 10.7654V14.2891L33.8137 13.861V10.4568L32.6689 10.7654Z" fill="#146140"/>
<path d="M30.6641 10.6111V14.1348L31.8088 13.7067V10.3025L30.6641 10.6111Z" fill="#146140"/>
<path d="M28.877 10.2824V13.8062L30.0266 13.3781V9.97388L28.877 10.2824Z" fill="#146140"/>
<path d="M39.1694 13.6916L39.1594 13.6966L38.0098 14.1395V10.4516L39.1445 10.1331L39.1594 12.2632L39.1694 13.6916Z" fill="#146140"/>
<path d="M38.0098 14.1395L39.1594 13.6965V13.7065L38.0098 14.1544V14.1395Z" fill="#146140"/>
<path d="M14.4482 14.9956L15.4088 14.4431L18.6339 15.5679L17.4892 16.2398L14.4482 14.9956Z" fill="white"/>
<path d="M15.4092 13.3681L18.5497 14.5327L19.4455 13.9156L16.6037 12.8157L15.4092 13.3681Z" fill="white"/>
<path d="M16.6035 11.5366L19.3906 12.9949L20.6747 12.5768L17.7681 11.1882L16.6035 11.5366Z" fill="white"/>
<path d="M17.709 10.1083L18.5302 9.77979L21.5413 10.9842L20.73 11.2878L17.709 10.1083Z" fill="white"/>
<path d="M18.5244 8.48091L21.4857 9.5858L22.5657 9.23244L19.5198 7.92847L18.5244 8.48091Z" fill="white"/>
</g>
<defs>
<clipPath id="clip0_17_68">
<rect width="39.2783" height="40" fill="white"/>
</clipPath>
</defs>
</svg>
